<svg xmlns="http://www.w3.org/2000/svg" viewBox="0 0 512 512" width="512" height="512">
  <defs>
    <linearGradient id="bg" x1="0%" y1="0%" x2="100%" y2="100%">
      <stop offset="0%" style="stop-color:#1e3a8a"/>
      <stop offset="100%" style="stop-color:#1d4ed8"/>
    </linearGradient>
    <linearGradient id="building1" x1="0%" y1="0%" x2="0%" y2="100%">
      <stop offset="0%" style="stop-color:#93c5fd"/>
      <stop offset="100%" style="stop-color:#60a5fa"/>
    </linearGradient>
    <linearGradient id="building2" x1="0%" y1="0%" x2="0%" y2="100%">
      <stop offset="0%" style="stop-color:#bfdbfe"/>
      <stop offset="100%" style="stop-color:#93c5fd"/>
    </linearGradient>
    <linearGradient id="building3" x1="0%" y1="0%" x2="0%" y2="100%">
      <stop offset="0%" style="stop-color:#dbeafe"/>
      <stop offset="100%" style="stop-color:#bfdbfe"/>
    </linearGradient>
  </defs>

  <!-- Background -->
  <rect width="512" height="512" rx="90" fill="url(#bg)"/>

  <!-- Ground line -->
  <rect x="60" y="370" width="392" height="8" rx="4" fill="#3b82f6" opacity="0.5"/>

  <!-- Building Left (smaller) -->
  <rect x="72" y="220" width="90" height="158" rx="6" fill="url(#building1)"/>
  <!-- Windows Left -->
  <rect x="88" y="238" width="20" height="18" rx="3" fill="#1e40af" opacity="0.6"/>
  <rect x="118" y="238" width="20" height="18" rx="3" fill="#1e40af" opacity="0.6"/>
  <rect x="88" y="268" width="20" height="18" rx="3" fill="#1e40af" opacity="0.6"/>
  <rect x="118" y="268" width="20" height="18" rx="3" fill="#1e40af" opacity="0.6"/>
  <rect x="88" y="298" width="20" height="18" rx="3" fill="#1e40af" opacity="0.6"/>
  <rect x="118" y="298" width="20" height="18" rx="3" fill="#1e40af" opacity="0.6"/>
  <rect x="88" y="328" width="20" height="18" rx="3" fill="#1e40af" opacity="0.6"/>
  <rect x="118" y="328" width="20" height="18" rx="3" fill="#1e40af" opacity="0.6"/>

  <!-- Building Right (smaller) -->
  <rect x="350" y="250" width="90" height="128" rx="6" fill="url(#building1)"/>
  <!-- Windows Right -->
  <rect x="366" y="268" width="20" height="18" rx="3" fill="#1e40af" opacity="0.6"/>
  <rect x="396" y="268" width="20" height="18" rx="3" fill="#1e40af" opacity="0.6"/>
  <rect x="366" y="298" width="20" height="18" rx="3" fill="#1e40af" opacity="0.6"/>
  <rect x="396" y="298" width="20" height="18" rx="3" fill="#1e40af" opacity="0.6"/>
  <rect x="366" y="328" width="20" height="18" rx="3" fill="#1e40af" opacity="0.6"/>
  <rect x="396" y="328" width="20" height="18" rx="3" fill="#1e40af" opacity="0.6"/>

  <!-- Main Building (center tall) -->
  <rect x="168" y="120" width="176" height="258" rx="8" fill="url(#building2)"/>
  <!-- Main Building roof detail -->
  <rect x="190" y="110" width="132" height="18" rx="4" fill="url(#building3)"/>
  <rect x="220" y="96" width="72" height="20" rx="4" fill="url(#building3)"/>
  <!-- Antenna -->
  <rect x="252" y="68" width="8" height="32" rx="4" fill="#93c5fd"/>
  <circle cx="256" cy="64" r="6" fill="#60a5fa"/>

  <!-- Main Building Windows -->
  <rect x="188" y="140" width="28" height="24" rx="4" fill="#1e40af" opacity="0.5"/>
  <rect x="230" y="140" width="28" height="24" rx="4" fill="#1e40af" opacity="0.5"/>
  <rect x="272" y="140" width="28" height="24" rx="4" fill="#1e40af" opacity="0.5"/>
  <rect x="314" y="140" width="28" height="24" rx="4" fill="#1e40af" opacity="0.5"/>

  <rect x="188" y="178" width="28" height="24" rx="4" fill="#1e40af" opacity="0.5"/>
  <rect x="230" y="178" width="28" height="24" rx="4" fill="#eff6ff" opacity="0.8"/>
  <rect x="272" y="178" width="28" height="24" rx="4" fill="#1e40af" opacity="0.5"/>
  <rect x="314" y="178" width="28" height="24" rx="4" fill="#eff6ff" opacity="0.8"/>

  <rect x="188" y="216" width="28" height="24" rx="4" fill="#1e40af" opacity="0.5"/>
  <rect x="230" y="216" width="28" height="24" rx="4" fill="#1e40af" opacity="0.5"/>
  <rect x="272" y="216" width="28" height="24" rx="4" fill="#eff6ff" opacity="0.8"/>
  <rect x="314" y="216" width="28" height="24" rx="4" fill="#1e40af" opacity="0.5"/>

  <rect x="188" y="254" width="28" height="24" rx="4" fill="#eff6ff" opacity="0.8"/>
  <rect x="230" y="254" width="28" height="24" rx="4" fill="#1e40af" opacity="0.5"/>
  <rect x="272" y="254" width="28" height="24" rx="4" fill="#1e40af" opacity="0.5"/>
  <rect x="314" y="254" width="28" height="24" rx="4" fill="#eff6ff" opacity="0.8"/>

  <rect x="188" y="292" width="28" height="24" rx="4" fill="#1e40af" opacity="0.5"/>
  <rect x="314" y="292" width="28" height="24" rx="4" fill="#1e40af" opacity="0.5"/>

  <!-- Door -->
  <rect x="232" y="330" width="48" height="48" rx="6" fill="#1e3a8a" opacity="0.7"/>
  <rect x="240" y="338" width="14" height="32" rx="3" fill="#60a5fa" opacity="0.6"/>
  <rect x="258" y="338" width="14" height="32" rx="3" fill="#60a5fa" opacity="0.6"/>

  <!-- Wrench icon (small, bottom right of building) -->
  <g transform="translate(320, 300) rotate(-35)">
    <rect x="-5" y="-22" width="10" height="32" rx="5" fill="#fbbf24"/>
    <circle cx="0" cy="-22" r="10" fill="none" stroke="#fbbf24" stroke-width="5"/>
  </g>

  <!-- Text: Manut-Pro -->
  <text x="256" y="432" font-family="Arial Black, Arial, sans-serif" font-size="52" font-weight="900" fill="white" text-anchor="middle" letter-spacing="1">MANUT</text>
  <text x="256" y="482" font-family="Arial, sans-serif" font-size="30" font-weight="400" fill="#93c5fd" text-anchor="middle" letter-spacing="4">PRO</text>
</svg>
